<?xml version="1.0" encoding="utf-8"?>
<!-- Generator: Adobe Illustrator 16.0.4, SVG Export Plug-In . SVG Version: 6.00 Build 0)  -->
<!DOCTYPE svg PUBLIC "-//W3C//DTD SVG 1.1//EN" "http://www.w3.org/Graphics/SVG/1.1/DTD/svg11.dtd">
<svg version="1.1" id="Ebene_1" xmlns="http://www.w3.org/2000/svg" xmlns:xlink="http://www.w3.org/1999/xlink" x="0px" y="0px"
	 width="400px" height="100px" viewBox="0 0 400 100" enable-background="new 0 0 400 100" xml:space="preserve">
<g>
	<path d="M39.868,12.217v7.932H26.179v58.618h13.688v7.931H16.034v-74.48H39.868z"/>
	<path d="M65.782,28.745L83.323,68.46h-8.102l-4.122-9.666H53.444l-3.838,9.666h-8.045l16.375-39.715H65.782z M55.775,52.967h12.821
		l-6.709-15.722L55.775,52.967z"/>
	<path d="M108.85,12.217v74.48H85.016v-7.931h13.688V20.148H85.016v-7.932H108.85z"/>
	<path d="M146.694,12.217v7.932h-13.688v58.618h13.688v7.931H122.86v-74.48H146.694z"/>
	<path d="M172.608,28.745l17.541,39.715h-8.102l-4.123-9.666h-17.654l-3.838,9.666h-8.045l16.375-39.715H172.608z M162.602,52.967
		h12.822l-6.709-15.722L162.602,52.967z"/>
	<path d="M209.424,28.745V68.46h-7.277V28.745H209.424z"/>
	<path d="M246.408,12.217v74.48h-23.834v-7.931h13.688V20.148h-13.688v-7.932H246.408z"/>
	<path d="M284.252,12.217v7.932h-13.689v58.618h13.689v7.931h-23.834v-74.48H284.252z"/>
	<path d="M310.166,28.745l17.541,39.715h-8.102l-4.123-9.666h-17.654l-3.838,9.666h-8.045l16.375-39.715H310.166z M300.16,52.967
		h12.82l-6.709-15.722L300.16,52.967z"/>
	<path d="M341.381,28.233c3.771,0,6.77,1.076,8.998,3.227c2.227,2.151,3.34,5.018,3.34,8.6c0,2.729-0.83,5.686-2.488,8.87
		c-1.658,3.184-4.572,7.401-8.74,12.65h13.617v6.88h-25.729v-0.824c2.994-3.696,5.566-7.018,7.719-9.965
		c2.15-2.946,3.812-5.392,4.988-7.334s2.01-3.597,2.502-4.961s0.74-2.776,0.74-4.236c0-1.819-0.584-3.35-1.75-4.591
		c-1.164-1.241-2.582-1.862-4.25-1.862c-2.994,0-6.102,1.706-9.324,5.117v-7.789C334.396,29.494,337.855,28.233,341.381,28.233z"/>
	<path d="M383.965,12.217v74.48h-23.834v-7.931h13.689V20.148h-13.689v-7.932H383.965z"/>
</g>
</svg>
