<?xml version="1.0" encoding="utf-8"?>
<!-- Generator: Adobe Illustrator 16.0.4, SVG Export Plug-In . SVG Version: 6.00 Build 0)  -->
<!DOCTYPE svg PUBLIC "-//W3C//DTD SVG 1.1//EN" "http://www.w3.org/Graphics/SVG/1.1/DTD/svg11.dtd">
<svg version="1.1" id="Ebene_1" xmlns="http://www.w3.org/2000/svg" xmlns:xlink="http://www.w3.org/1999/xlink" x="0px" y="0px"
	 width="400px" height="100px" viewBox="0 0 400 100" enable-background="new 0 0 400 100" xml:space="preserve">
<g>
	<path d="M99.052,12.124v7.932H85.364v58.618h13.688v7.931H75.219v-74.48H99.052z"/>
	<path d="M119.395,28.652c3.639,0,6.604,0.948,8.898,2.843c2.293,1.896,3.44,4.265,3.44,7.107c0,1.819-0.479,3.421-1.436,4.805
		c-0.957,1.383-2.345,2.482-4.165,3.297v0.342c2.767,0.625,4.923,1.862,6.468,3.71c1.544,1.848,2.317,4.013,2.317,6.496
		c0,2.198-0.564,4.164-1.691,5.898c-1.128,1.734-2.691,3.037-4.691,3.909s-4.354,1.308-7.064,1.308h-16.631V28.652H119.395z
		 M117.348,45.141c2.028,0,3.629-0.483,4.804-1.449c1.175-0.967,1.763-2.312,1.763-4.037c0-1.535-0.54-2.753-1.621-3.653
		c-1.08-0.899-2.501-1.351-4.264-1.351h-5.515v10.49H117.348z M119.139,62.369c2.596,0,4.558-0.488,5.885-1.465
		c1.326-0.976,1.99-2.411,1.99-4.307c0-1.687-0.659-3.018-1.976-3.994c-1.317-0.976-3.084-1.464-5.302-1.464h-7.221v11.229H119.139z
		"/>
	<path d="M162.263,12.124v74.48H138.43v-7.931h13.688V20.056H138.43v-7.932H162.263z"/>
	<path d="M200.107,12.124v7.932h-13.688v58.618h13.688v7.931h-23.833v-74.48H200.107z"/>
	<path d="M220.45,28.652c3.639,0,6.604,0.948,8.897,2.843c2.293,1.896,3.44,4.265,3.44,7.107c0,1.819-0.479,3.421-1.436,4.805
		c-0.957,1.383-2.345,2.482-4.165,3.297v0.342c2.768,0.625,4.923,1.862,6.467,3.71c1.545,1.848,2.318,4.013,2.318,6.496
		c0,2.198-0.564,4.164-1.693,5.898c-1.127,1.734-2.689,3.037-4.689,3.909s-4.354,1.308-7.064,1.308h-16.631V28.652H220.45z
		 M218.403,45.141c2.028,0,3.629-0.483,4.804-1.449c1.176-0.967,1.764-2.312,1.764-4.037c0-1.535-0.541-2.753-1.621-3.653
		c-1.08-0.899-2.502-1.351-4.264-1.351h-5.516v10.49H218.403z M220.194,62.369c2.597,0,4.558-0.488,5.885-1.465
		c1.326-0.976,1.989-2.411,1.989-4.307c0-1.687-0.658-3.018-1.975-3.994c-1.318-0.976-3.085-1.464-5.303-1.464h-7.221v11.229
		H220.194z"/>
	<path d="M253.285,28.141c2.502,0,4.748,0.588,6.738,1.763c1.988,1.175,3.523,2.828,4.605,4.961c1.08,2.132,1.619,4.582,1.619,7.349
		c0,4.17-1.264,8.671-3.795,13.504c-2.529,4.832-5.898,9.221-10.105,13.162h-8.672c2.256-1.952,4.645-4.61,7.164-7.975
		c2.521-3.363,4.303-6.325,5.346-8.884c-1.422,0.607-2.939,0.91-4.549,0.91c-3.146,0-5.748-1.123-7.805-3.369
		s-3.084-5.121-3.084-8.628c0-2.312,0.541-4.449,1.621-6.411c1.08-1.961,2.586-3.515,4.52-4.662
		C248.822,28.714,250.953,28.141,253.285,28.141z M247.969,40.819c0,1.763,0.502,3.213,1.508,4.35
		c1.004,1.138,2.33,1.706,3.979,1.706c1.555,0,2.844-0.573,3.867-1.72s1.535-2.516,1.535-4.108c0-1.895-0.518-3.435-1.549-4.619
		c-1.033-1.185-2.375-1.777-4.023-1.777c-1.592,0-2.877,0.569-3.852,1.706C248.457,37.493,247.969,38.981,247.969,40.819z"/>
	<path d="M293.967,28.141c-2.123,1.763-4.469,4.369-7.037,7.817c-2.568,3.45-4.4,6.473-5.5,9.069
		c1.479-0.626,2.994-0.938,4.549-0.938c2.047,0,3.908,0.517,5.586,1.55s2.98,2.464,3.908,4.293c0.93,1.829,1.395,3.861,1.395,6.098
		c0,2.369-0.551,4.539-1.65,6.51c-1.1,1.972-2.615,3.521-4.549,4.648c-1.932,1.128-4.035,1.691-6.311,1.691
		c-3.865,0-6.998-1.303-9.395-3.909c-2.398-2.605-3.598-5.993-3.598-10.163c0-4.15,1.246-8.595,3.738-13.333
		s5.891-9.183,10.191-13.333H293.967z M278.758,56.029c0,1.838,0.516,3.354,1.549,4.549c1.033,1.193,2.363,1.791,3.994,1.791
		c1.592,0,2.881-0.564,3.867-1.692c0.984-1.127,1.477-2.619,1.477-4.477c0-1.744-0.506-3.188-1.52-4.336
		c-1.016-1.146-2.328-1.72-3.938-1.72c-1.555,0-2.848,0.564-3.881,1.691C279.273,52.964,278.758,54.361,278.758,56.029z"/>
	<path d="M324.781,12.124v74.48h-23.834v-7.931h13.689V20.056h-13.689v-7.932H324.781z"/>
</g>
</svg>
