<?xml version="1.0" encoding="utf-8"?>
<!-- Generator: Adobe Illustrator 16.0.4, SVG Export Plug-In . SVG Version: 6.00 Build 0)  -->
<!DOCTYPE svg PUBLIC "-//W3C//DTD SVG 1.1//EN" "http://www.w3.org/Graphics/SVG/1.1/DTD/svg11.dtd">
<svg version="1.1" xmlns="http://www.w3.org/2000/svg" xmlns:xlink="http://www.w3.org/1999/xlink" x="0px" y="0px" width="500px"
	 height="100px" viewBox="0 0 500 100" enable-background="new 0 0 500 100" xml:space="preserve">
<g id="Ebene_3">
	
		<rect x="85.849" y="22.616" transform="matrix(0.689 -0.7248 0.7248 0.689 1.8148 103.6214)" fill="none" stroke="#FF9900" stroke-width="6" stroke-miterlimit="10" width="71.595" height="54.16"/>
</g>
<g id="Ebene_1">
	<g>
		<path fill="#0048A9" d="M38.111,48.708h2.216l-4.615,10.629h-0.66l-3.089-7.279l-3.051,7.279h-0.671l-4.653-10.629h2.22
			l2.737,6.336l2.668-6.336h1.533l2.636,6.336L38.111,48.708z"/>
		<path fill="#0048A9" d="M54.839,48.708h2.216L52.44,59.338h-0.66l-3.089-7.279l-3.051,7.279H44.97l-4.653-10.629h2.22l2.737,6.336
			l2.668-6.336h1.533l2.636,6.336L54.839,48.708z"/>
		<path fill="#0048A9" d="M71.566,48.708h2.216l-4.615,10.629h-0.66l-3.089-7.279l-3.051,7.279h-0.671l-4.653-10.629h2.22
			l2.737,6.336l2.668-6.336h1.533l2.636,6.336L71.566,48.708z"/>
		<path fill="#0048A9" d="M78.395,56.624c0.386,0,0.716,0.133,0.988,0.397s0.409,0.591,0.409,0.977c0,0.379-0.134,0.696-0.403,0.954
			c-0.269,0.257-0.6,0.386-0.994,0.386c-0.386,0-0.711-0.129-0.977-0.386c-0.265-0.258-0.397-0.575-0.397-0.954
			c0-0.386,0.132-0.712,0.397-0.977S78.009,56.624,78.395,56.624z"/>
		<path fill="#0048A9" d="M109.623,42.201l-9.494,17.255h-3.481l-1.632-8.312l-4.297,8.312h-3.448l-4.13-17.255h4.747l2.148,9.277
			l4.581-9.277h3.098l1.732,9.277l4.847-9.277H109.623z"/>
		<path fill="#0048A9" d="M119.406,42.201l-2.415,16.955h-5.629l2.415-16.955H119.406z M119.723,38.32
			c0,0.699-0.25,1.299-0.75,1.799c-0.5,0.5-1.105,0.75-1.815,0.75c-0.699,0-1.302-0.252-1.807-0.758s-0.758-1.102-0.758-1.791
			c0-0.7,0.252-1.302,0.758-1.807s1.108-0.758,1.807-0.758c0.444,0,0.866,0.117,1.266,0.35c0.399,0.233,0.716,0.55,0.949,0.949
			C119.606,37.454,119.723,37.876,119.723,38.32z"/>
		<path fill="#0048A9" d="M131.015,36.072l-3.415,23.084h-5.629l3.414-23.084H131.015z"/>
		<path fill="#0048A9" d="M141.625,36.072l-3.415,23.084h-5.629l3.414-23.084H141.625z"/>
		<path fill="#0048A9" d="M159.529,49.646c0,0.8-0.078,1.627-0.233,2.482H148.57c0,2.343,1.149,3.514,3.447,3.514
			c1.144,0,2.168-0.133,3.073-0.399c0.905-0.267,1.984-0.655,3.239-1.166l-0.849,4.164c-1.188,0.478-2.141,0.8-2.856,0.966
			c-0.716,0.167-1.619,0.25-2.707,0.25c-2.31,0-4.125-0.428-5.446-1.282c-1.322-0.855-2.221-1.877-2.698-3.064
			c-0.478-1.188-0.716-2.365-0.716-3.531c0-1.743,0.397-3.356,1.191-4.838c0.793-1.482,1.893-2.659,3.298-3.531
			c1.404-0.872,2.99-1.307,4.755-1.307c1.321,0,2.529,0.283,3.623,0.849s1.968,1.433,2.624,2.598
			C159.202,46.515,159.529,47.947,159.529,49.646z M154.167,49.13c0-0.077,0.002-0.153,0.008-0.225
			c0.005-0.072,0.008-0.18,0.008-0.325c0-1.91-0.661-2.865-1.982-2.865c-0.8,0-1.43,0.314-1.891,0.941
			c-0.461,0.627-0.891,1.452-1.291,2.474H154.167z"/>
		<path fill="#0048A9" d="M189.06,46.948c0,0.433-0.078,1.205-0.233,2.315l-1.433,9.894h-5.563l1.466-9.993
			c0.066-0.489,0.1-0.883,0.1-1.183c0-1.166-0.411-1.749-1.233-1.749s-1.91,0.6-3.264,1.799l-1.583,11.126h-5.546l1.399-9.511
			c0.144-1.032,0.216-1.687,0.216-1.965c0-0.478-0.086-0.838-0.258-1.083c-0.172-0.244-0.48-0.367-0.925-0.367
			c-0.478,0-0.974,0.178-1.49,0.533c-0.517,0.355-1.158,0.905-1.924,1.649l-1.532,10.743h-5.563l2.498-16.955h5.53l-0.316,1.982
			c0.566-0.566,1.299-1.088,2.198-1.566c0.899-0.477,1.849-0.716,2.848-0.716c1.921,0,3.287,0.827,4.098,2.481
			c0.399-0.4,0.854-0.783,1.366-1.149c0.51-0.366,1.104-0.68,1.782-0.941c0.677-0.261,1.416-0.391,2.215-0.391
			c1.954,0,3.3,0.536,4.039,1.607C188.69,44.58,189.06,45.727,189.06,46.948z"/>
		<path fill="#0048A9" d="M203.933,43.467l-0.416,3.997c-0.822-0.411-1.729-0.783-2.723-1.116c-0.994-0.333-1.78-0.5-2.357-0.5
			c-0.755,0-1.132,0.261-1.132,0.783c0,0.3,0.113,0.572,0.341,0.816c0.228,0.245,0.608,0.553,1.141,0.924
			c0.533,0.373,1.01,0.736,1.433,1.091c1.121,0.933,1.874,1.771,2.257,2.515c0.383,0.744,0.575,1.443,0.575,2.099
			c0,0.833-0.245,1.669-0.733,2.507c-0.489,0.839-1.23,1.526-2.224,2.065c-0.994,0.538-2.207,0.808-3.639,0.808
			c-0.566,0-1.374-0.103-2.423-0.309c-1.049-0.205-2.14-0.602-3.273-1.19l0.716-3.881c1.232,0.5,2.182,0.863,2.848,1.091
			c0.666,0.228,1.376,0.342,2.132,0.342c0.455,0,0.808-0.105,1.058-0.316s0.375-0.45,0.375-0.717c0-0.333-0.175-0.657-0.524-0.974
			s-1.036-0.853-2.057-1.607c-0.933-0.711-1.713-1.457-2.34-2.24c-0.627-0.783-0.941-1.663-0.941-2.64
			c0-1.343,0.546-2.531,1.64-3.564s2.684-1.549,4.772-1.549c1.11,0,2.074,0.136,2.89,0.408
			C202.143,42.582,203.011,42.967,203.933,43.467z"/>
		<path fill="#0048A9" d="M222.32,49.646c0,0.8-0.078,1.627-0.233,2.482h-10.726c0,2.343,1.149,3.514,3.447,3.514
			c1.144,0,2.168-0.133,3.073-0.399c0.905-0.267,1.984-0.655,3.239-1.166l-0.849,4.164c-1.188,0.478-2.141,0.8-2.856,0.966
			c-0.716,0.167-1.619,0.25-2.707,0.25c-2.31,0-4.125-0.428-5.446-1.282c-1.322-0.855-2.221-1.877-2.698-3.064
			c-0.478-1.188-0.716-2.365-0.716-3.531c0-1.743,0.397-3.356,1.191-4.838c0.793-1.482,1.893-2.659,3.298-3.531
			c1.404-0.872,2.99-1.307,4.755-1.307c1.321,0,2.529,0.283,3.623,0.849s1.968,1.433,2.624,2.598
			C221.993,46.515,222.32,47.947,222.32,49.646z M216.958,49.13c0-0.077,0.002-0.153,0.008-0.225
			c0.005-0.072,0.008-0.18,0.008-0.325c0-1.91-0.661-2.865-1.982-2.865c-0.8,0-1.43,0.314-1.891,0.941
			c-0.461,0.627-0.891,1.452-1.291,2.474H216.958z"/>
		<path fill="#0048A9" d="M242.54,47.048c0,0.333-0.056,0.96-0.166,1.882l-1.516,10.227h-5.513l1.532-10.576
			c0.022-0.133,0.033-0.328,0.033-0.583c0-1.066-0.466-1.599-1.399-1.599c-0.578,0-1.141,0.189-1.69,0.566
			c-0.55,0.377-1.308,1.022-2.273,1.932l-1.499,10.26h-5.563l2.532-16.955h5.529l-0.283,1.982c1.021-0.733,1.918-1.296,2.69-1.691
			c0.771-0.394,1.729-0.591,2.873-0.591c1.732,0,2.951,0.536,3.656,1.607C242.188,44.58,242.54,45.76,242.54,47.048z"/>
		<path fill="#0048A9" d="M257.413,43.467l-0.416,3.997c-0.822-0.411-1.729-0.783-2.724-1.116c-0.993-0.333-1.779-0.5-2.356-0.5
			c-0.755,0-1.133,0.261-1.133,0.783c0,0.3,0.114,0.572,0.342,0.816c0.228,0.245,0.607,0.553,1.141,0.924
			c0.533,0.373,1.011,0.736,1.433,1.091c1.121,0.933,1.874,1.771,2.257,2.515c0.383,0.744,0.574,1.443,0.574,2.099
			c0,0.833-0.244,1.669-0.732,2.507c-0.489,0.839-1.23,1.526-2.224,2.065c-0.994,0.538-2.207,0.808-3.64,0.808
			c-0.565,0-1.374-0.103-2.423-0.309c-1.05-0.205-2.141-0.602-3.272-1.19l0.716-3.881c1.232,0.5,2.182,0.863,2.848,1.091
			c0.667,0.228,1.377,0.342,2.132,0.342c0.456,0,0.809-0.105,1.058-0.316c0.25-0.211,0.375-0.45,0.375-0.717
			c0-0.333-0.175-0.657-0.524-0.974s-1.035-0.853-2.057-1.607c-0.933-0.711-1.713-1.457-2.341-2.24
			c-0.627-0.783-0.94-1.663-0.94-2.64c0-1.343,0.547-2.531,1.641-3.564c1.093-1.033,2.684-1.549,4.771-1.549
			c1.11,0,2.073,0.136,2.89,0.408C255.623,42.582,256.491,42.967,257.413,43.467z"/>
		<path fill="#0048A9" d="M272.287,48.13l-0.816,5.263h-11.325l0.815-5.263H272.287z"/>
		<path fill="#0048A9" d="M291.141,36.305l-0.566,4.064c-0.821-0.122-1.482-0.183-1.981-0.183c-0.978,0-1.716,0.27-2.216,0.808
			c-0.499,0.539-0.844,1.546-1.032,3.023h3.798l-0.684,4.164h-3.73l-2.615,17.905h-5.529l2.599-17.905h-3.864l0.616-4.164h3.848
			l0.283-1.583c0.155-0.811,0.33-1.524,0.524-2.14s0.544-1.283,1.049-1.999c0.506-0.716,1.229-1.318,2.174-1.807
			c0.943-0.489,2.148-0.733,3.614-0.733c0.633,0,1.222,0.044,1.766,0.133S290.386,36.116,291.141,36.305z"/>
		<path fill="#0048A9" d="M308.68,42.434l-2.565,16.722h-5.513l0.267-1.532c-0.645,0.566-1.269,1.014-1.874,1.341
			s-1.38,0.491-2.323,0.491c-1.199,0-2.26-0.336-3.182-1.008s-1.632-1.568-2.132-2.689c-0.499-1.122-0.749-2.343-0.749-3.664
			c0-1.1,0.18-2.224,0.541-3.373c0.36-1.149,1.005-2.249,1.932-3.298c0.928-1.049,2.235-1.899,3.923-2.548s3.77-0.974,6.246-0.974
			c1.043,0,1.898,0.039,2.564,0.116C306.48,42.096,307.436,42.234,308.68,42.434z M302.684,45.982h-1.033
			c-0.999,0-1.912,0.283-2.739,0.849s-1.475,1.333-1.94,2.299c-0.467,0.966-0.699,2.01-0.699,3.131c0,0.767,0.193,1.419,0.582,1.957
			c0.389,0.539,0.944,0.808,1.666,0.808c0.355,0,0.758-0.092,1.207-0.274c0.45-0.184,1.024-0.502,1.725-0.958L302.684,45.982z"/>
		<path fill="#0048A9" d="M328.766,46.948c0,0.633-0.083,1.46-0.25,2.482l-1.432,9.727h-5.547l1.565-10.443
			c0.022-0.178,0.034-0.316,0.034-0.417c0-0.488-0.12-0.921-0.358-1.299c-0.239-0.377-0.597-0.566-1.074-0.566
			c-0.544,0-1.11,0.203-1.699,0.608s-1.332,1.035-2.231,1.89l-1.499,10.227h-5.563l3.448-23.084h5.496l-1.199,8.111
			c1.021-0.755,1.938-1.324,2.748-1.708c0.811-0.383,1.738-0.574,2.781-0.574c1.255,0,2.234,0.28,2.94,0.841
			c0.705,0.561,1.188,1.227,1.448,1.999C328.635,45.513,328.766,46.248,328.766,46.948z"/>
		<path fill="#0048A9" d="M346.254,43.633l-2.615,5.363c-0.3-0.522-0.633-0.966-0.999-1.333c-0.366-0.367-0.833-0.55-1.399-0.55
			c-1.088,0-2.087,0.783-2.998,2.349l-1.432,9.693h-5.497l2.532-16.955h5.496l-0.35,2.432c1.521-1.821,2.876-2.731,4.063-2.731
			c0.622,0,1.175,0.152,1.657,0.458C345.196,42.665,345.71,43.089,346.254,43.633z"/>
		<path fill="#0048A9" d="M358.929,43.467l-0.416,3.997c-0.822-0.411-1.729-0.783-2.724-1.116c-0.993-0.333-1.779-0.5-2.356-0.5
			c-0.755,0-1.133,0.261-1.133,0.783c0,0.3,0.114,0.572,0.342,0.816c0.228,0.245,0.607,0.553,1.141,0.924
			c0.533,0.373,1.011,0.736,1.433,1.091c1.121,0.933,1.874,1.771,2.257,2.515c0.383,0.744,0.574,1.443,0.574,2.099
			c0,0.833-0.244,1.669-0.732,2.507c-0.489,0.839-1.23,1.526-2.224,2.065c-0.994,0.538-2.207,0.808-3.64,0.808
			c-0.565,0-1.374-0.103-2.423-0.309c-1.05-0.205-2.141-0.602-3.272-1.19l0.716-3.881c1.232,0.5,2.182,0.863,2.848,1.091
			c0.667,0.228,1.377,0.342,2.132,0.342c0.456,0,0.809-0.105,1.058-0.316c0.25-0.211,0.375-0.45,0.375-0.717
			c0-0.333-0.175-0.657-0.524-0.974s-1.035-0.853-2.057-1.607c-0.933-0.711-1.713-1.457-2.341-2.24
			c-0.627-0.783-0.94-1.663-0.94-2.64c0-1.343,0.547-2.531,1.641-3.564c1.093-1.033,2.684-1.549,4.771-1.549
			c1.11,0,2.073,0.136,2.89,0.408C357.139,42.582,358.007,42.967,358.929,43.467z"/>
		<path fill="#0048A9" d="M376.801,42.518l-0.75,5.246c-1.088-0.355-1.771-0.561-2.048-0.616c-0.633-0.155-1.294-0.233-1.982-0.233
			c-1.277,0-2.321,0.244-3.131,0.733c-0.811,0.489-1.399,1.085-1.766,1.79c-0.366,0.705-0.55,1.341-0.55,1.907
			c0,0.744,0.255,1.466,0.767,2.165c0.51,0.7,1.537,1.05,3.081,1.05c0.788,0,1.571-0.111,2.349-0.333
			c0.776-0.223,1.815-0.639,3.114-1.249l-0.883,5.695c-0.699,0.223-1.264,0.384-1.69,0.483c-0.428,0.1-0.895,0.175-1.399,0.225
			s-1.024,0.075-1.557,0.075c-3.643,0-6.127-0.874-7.454-2.623s-1.99-3.601-1.99-5.555c0-1.243,0.322-2.584,0.966-4.022
			c0.645-1.438,1.774-2.69,3.39-3.756s3.789-1.599,6.521-1.599C373.353,41.901,375.024,42.107,376.801,42.518z"/>
		<path fill="#0048A9" d="M396.453,46.948c0,0.633-0.083,1.46-0.25,2.482l-1.432,9.727h-5.547l1.565-10.443
			c0.022-0.178,0.034-0.316,0.034-0.417c0-0.488-0.12-0.921-0.358-1.299c-0.239-0.377-0.597-0.566-1.074-0.566
			c-0.544,0-1.11,0.203-1.699,0.608s-1.332,1.035-2.231,1.89l-1.499,10.227h-5.563l3.448-23.084h5.496l-1.199,8.111
			c1.021-0.755,1.938-1.324,2.748-1.708c0.811-0.383,1.738-0.574,2.781-0.574c1.255,0,2.234,0.28,2.94,0.841
			c0.705,0.561,1.188,1.227,1.448,1.999C396.322,45.513,396.453,46.248,396.453,46.948z"/>
		<path fill="#0048A9" d="M417.573,42.201l-2.531,16.955h-5.53l0.283-1.982c-0.222,0.156-0.563,0.395-1.024,0.717
			s-0.889,0.583-1.282,0.782c-0.395,0.2-0.883,0.381-1.466,0.542c-0.583,0.16-1.18,0.241-1.79,0.241
			c-1.188,0-2.132-0.274-2.832-0.824c-0.699-0.55-1.188-1.219-1.466-2.007c-0.277-0.789-0.416-1.561-0.416-2.315
			c0-0.355,0.056-0.977,0.167-1.865l1.516-10.243h5.513l-1.532,10.576c-0.022,0.133-0.033,0.327-0.033,0.583
			c0,1.065,0.466,1.599,1.398,1.599c0.577,0,1.144-0.188,1.699-0.566c0.555-0.377,1.311-1.016,2.266-1.915l1.499-10.276H417.573z"/>
		<path fill="#0048A9" d="M428.965,36.072l-3.414,23.084h-5.63l3.415-23.084H428.965z"/>
		<path fill="#0048A9" d="M446.87,49.646c0,0.8-0.078,1.627-0.233,2.482H435.91c0,2.343,1.149,3.514,3.448,3.514
			c1.144,0,2.168-0.133,3.072-0.399c0.905-0.267,1.985-0.655,3.24-1.166l-0.85,4.164c-1.188,0.478-2.141,0.8-2.856,0.966
			c-0.717,0.167-1.618,0.25-2.707,0.25c-2.31,0-4.125-0.428-5.446-1.282c-1.321-0.855-2.221-1.877-2.698-3.064
			c-0.478-1.188-0.716-2.365-0.716-3.531c0-1.743,0.396-3.356,1.19-4.838c0.794-1.482,1.894-2.659,3.298-3.531
			c1.405-0.872,2.99-1.307,4.756-1.307c1.321,0,2.528,0.283,3.622,0.849s1.968,1.433,2.623,2.598
			C446.542,46.515,446.87,47.947,446.87,49.646z M441.507,49.13c0-0.077,0.002-0.153,0.008-0.225s0.009-0.18,0.009-0.325
			c0-1.91-0.661-2.865-1.982-2.865c-0.799,0-1.43,0.314-1.89,0.941c-0.461,0.627-0.892,1.452-1.291,2.474H441.507z"/>
		<path fill="#0048A9" d="M450.552,56.624c0.387,0,0.716,0.133,0.988,0.397s0.408,0.591,0.408,0.977
			c0,0.379-0.134,0.696-0.402,0.954c-0.27,0.257-0.601,0.386-0.994,0.386c-0.386,0-0.712-0.129-0.977-0.386
			c-0.265-0.258-0.397-0.575-0.397-0.954c0-0.386,0.133-0.712,0.397-0.977S450.166,56.624,450.552,56.624z"/>
		<path fill="#0048A9" d="M461.556,43.292h2.078v15.864h-4.417c-1.545,0-2.777-0.488-3.697-1.465
			c-0.919-0.977-1.379-2.286-1.379-3.93c0-1.536,0.482-2.801,1.447-3.793c0.966-0.991,2.197-1.487,3.696-1.487
			c0.696,0,1.454,0.148,2.271,0.443V43.292z M461.556,57.385v-6.621c-0.644-0.325-1.295-0.488-1.953-0.488
			c-1.029,0-1.85,0.338-2.459,1.011c-0.609,0.674-0.914,1.583-0.914,2.726c0,1.075,0.266,1.904,0.795,2.487
			c0.318,0.349,0.655,0.583,1.011,0.704s0.995,0.182,1.919,0.182H461.556z"/>
		<path fill="#0048A9" d="M475.342,54.114h-7.348c0.053,0.999,0.388,1.794,1.005,2.385s1.414,0.886,2.391,0.886
			c1.363,0,2.619-0.424,3.771-1.271v2.021c-0.636,0.425-1.267,0.728-1.891,0.909c-0.625,0.182-1.357,0.272-2.197,0.272
			c-1.151,0-2.082-0.238-2.794-0.716c-0.712-0.477-1.281-1.118-1.709-1.925c-0.428-0.806-0.642-1.739-0.642-2.799
			c0-1.59,0.45-2.883,1.352-3.878c0.9-0.996,2.07-1.494,3.509-1.494c1.386,0,2.49,0.484,3.315,1.454
			c0.825,0.969,1.238,2.268,1.238,3.895V54.114z M468.04,52.876h5.258c-0.054-0.824-0.3-1.461-0.738-1.907
			c-0.439-0.447-1.03-0.67-1.771-0.67c-0.742,0-1.35,0.223-1.823,0.67C468.492,51.415,468.184,52.052,468.04,52.876z"/>
	</g>
</g>
</svg>
